HIERARCHY
ROOT Pelvis
{
	OFFSET -0.001795 -0.223333 0.028219
	CHANNELS 6 Xposition Yposition Zposition Zrotation Yrotation Xrotation 
	JOINT Left_hip
	{
		OFFSET 0.069520 -0.091406 -0.006815
		CHANNELS 3 Zrotation Yrotation Xrotation
		JOINT Left_knee
		{
			OFFSET 0.034277 -0.375199 -0.004496
			CHANNELS 3 Zrotation Yrotation Xrotation
			JOINT Left_ankle
			{
				OFFSET -0.013596 -0.397960 -0.043693
				CHANNELS 3 Zrotation Yrotation Xrotation
				JOINT Left_foot
				{
					OFFSET 0.026358 -0.055791 0.119288
					CHANNELS 3 Zrotation Yrotation Xrotation
					End Site
					{
						OFFSET 0.000000 0.000000 0.000000
					}
				}
			}
		}
	}
	JOINT Right_hip
	{
		OFFSET -0.067670 -0.090522 -0.004320
		CHANNELS 3 Zrotation Yrotation Xrotation
		JOINT Right_knee
		{
			OFFSET -0.038290 -0.382569 -0.008850
			CHANNELS 3 Zrotation Yrotation Xrotation
			JOINT Right_ankle
			{
				OFFSET 0.015774 -0.398415 -0.042312
				CHANNELS 3 Zrotation Yrotation Xrotation
				JOINT Right_foot
				{
					OFFSET -0.025372 -0.048144 0.123348
					CHANNELS 3 Zrotation Yrotation Xrotation
					End Site
					{
						OFFSET 0.000000 0.000000 0.000000
					}
				}
			}
		}
	}
	JOINT Spine1
	{
		OFFSET -0.002533 0.108963 -0.026696
		CHANNELS 3 Zrotation Yrotation Xrotation
		JOINT Spine2
		{
			OFFSET 0.005487 0.135180 0.001092
			CHANNELS 3 Zrotation Yrotation Xrotation
			JOINT Spine3
			{
				OFFSET 0.001457 0.052922 0.025425
				CHANNELS 3 Zrotation Yrotation Xrotation
				JOINT Neck
				{
					OFFSET -0.002778 0.213870 -0.042857
					CHANNELS 3 Zrotation Yrotation Xrotation
					JOINT Head
					{
						OFFSET 0.005152 0.064970 0.051349
						CHANNELS 3 Zrotation Yrotation Xrotation
						End Site
						{
							OFFSET 0.000000 0.000000 0.000000
						}
					}
				}
				JOINT Left_collar
				{
					OFFSET 0.078845 0.121749 -0.034090
					CHANNELS 3 Zrotation Yrotation Xrotation
					JOINT Left_shoulder
					{
						OFFSET 0.090977 0.030469 -0.008868
						CHANNELS 3 Zrotation Yrotation Xrotation
						JOINT Left_elbow
						{
							OFFSET 0.259612 -0.012772 -0.027456
							CHANNELS 3 Zrotation Yrotation Xrotation
							JOINT Left_wrist
							{
								OFFSET 0.249234 0.008986 -0.001171
								CHANNELS 3 Zrotation Yrotation Xrotation
								JOINT Left_palm
								{
									OFFSET 0.084042 -0.008162 -0.014945
									CHANNELS 3 Zrotation Yrotation Xrotation
									End Site
									{
										OFFSET 0.000000 0.000000 0.000000
									}
								}
							}
						}
					}
				}
				JOINT Right_collar
				{
					OFFSET -0.081759 0.118833 -0.038615
					CHANNELS 3 Zrotation Yrotation Xrotation
					JOINT Right_shoulder
					{
						OFFSET -0.096012 0.032551 -0.009143
						CHANNELS 3 Zrotation Yrotation Xrotation
						JOINT Right_elbow
						{
							OFFSET -0.253742 -0.013329 -0.021401
							CHANNELS 3 Zrotation Yrotation Xrotation
							JOINT Right_wrist
							{
								OFFSET -0.255298 0.007772 -0.005559
								CHANNELS 3 Zrotation Yrotation Xrotation
								JOINT Right_palm
								{
									OFFSET -0.084622 -0.006117 -0.010315
									CHANNELS 3 Zrotation Yrotation Xrotation
									End Site
									{
										OFFSET 0.000000 0.000000 0.000000
									}
								}
							}
						}
					}
				}
			}
		}
	}
}
MOTION
Frames: 14
Frame Time: 0.016667
0.036091 -0.760484 0.890602 -94.193963 -11.317898 -165.684948 -79.886969 -41.909548 -36.241230 85.988525 74.505897 53.021892 -103.533033 58.510101 -93.209074 -62.596567 21.404552 57.940803 80.420638 -75.451034 -27.422381 -92.061827 -6.073228 -54.960777 -98.092494 -27.707255 57.249115 68.752440 -35.560004 40.676477 90.989374 60.027686 30.930582 -91.504578 30.341236 -76.906990 -107.316004 -80.737444 -17.406039 87.918650 27.539842 61.748855 -89.832953 16.551860 -1.753796 92.516076 4.140658 -50.914627 62.335456 11.266056 -28.629522 -48.984731 -9.689310 -74.188696 -81.449003 29.555292 0.118173 0.000000 0.000000 0.000000 -98.708451 0.481440 -60.727043 -83.264769 9.331515 -44.866314 51.665202 4.605590 -70.729753 86.223424 -30.922851 14.403555 0.000000 0.000000 0.000000 
0.284073 -0.766934 0.273952 -16.281363 12.509582 -45.097164 -80.797038 -45.565454 -38.061509 81.052520 76.096321 40.815738 -103.595541 60.219799 -95.208798 -51.329612 11.926475 49.800006 81.388761 -74.111648 -33.733529 -91.420883 -11.064808 -55.000102 -99.898088 -31.610422 59.794415 71.578690 -36.071806 33.017577 91.520118 61.077752 31.509232 -92.314669 48.287227 -79.600196 -104.831162 -78.140617 -0.964281 88.309227 30.373223 65.379527 -89.095314 17.955595 0.836348 91.901630 0.904672 -54.078879 62.544072 11.103258 -31.069988 -51.865883 -7.289890 -71.569859 -83.088926 32.756384 -3.131548 0.000000 0.000000 0.000000 -98.517470 3.327083 -65.326240 -82.917206 11.657236 -45.120896 54.631269 2.248150 -68.522590 85.870955 -32.301864 12.082361 0.000000 0.000000 0.000000 
-0.420306 -0.784803 1.108795 -29.968667 -37.999998 83.367602 -83.564333 -44.852961 -36.136085 74.474513 72.675347 25.313374 -106.258322 63.393227 -100.275126 -56.795160 28.882374 42.280068 80.610579 -75.945678 -33.329695 -91.242757 4.231266 -54.956107 -100.312585 -40.823965 65.062571 71.466442 -33.986761 36.338632 92.397208 59.091540 32.442351 -91.813402 34.484906 -76.533693 -108.040385 -80.619017 -2.445408 87.036206 18.947161 62.112440 -88.705496 20.776465 4.092981 92.448669 -2.643634 -55.953798 63.267107 11.933769 -32.038833 -48.923290 -6.886588 -74.202407 -81.528946 32.681003 0.757046 0.000000 0.000000 0.000000 -99.534807 4.514538 -67.577534 -82.941746 8.071113 -46.322007 53.367994 1.230165 -66.834483 84.527112 -30.370047 14.776198 0.000000 0.000000 0.000000 
-1.095706 -0.775275 0.205943 83.631872 36.869128 136.262918 -78.460677 -45.806072 -35.517113 74.754482 71.110908 22.604008 -122.021231 78.757404 -120.371831 -55.477840 30.591824 46.056213 79.426610 -76.061933 -33.840453 -89.481906 45.388857 -61.735082 -99.687579 -40.359981 61.730780 66.137603 -35.038047 37.387197 92.965232 59.404496 33.039943 -91.819480 33.568488 -74.217616 -92.975727 -73.356531 -10.423953 87.248534 15.735248 59.079722 -89.038711 20.464008 7.287589 92.161630 -4.348277 -56.955444 62.314118 11.339030 -34.638901 -48.496892 -4.981269 -73.360003 -85.969576 32.257182 -3.162653 0.000000 0.000000 0.000000 -99.768975 6.284046 -69.885277 -82.296435 7.485824 -44.868533 53.791926 0.038250 -65.669365 86.339415 -29.146240 12.817727 0.000000 0.000000 0.000000 
-1.299567 -0.782928 0.070411 69.311998 55.881296 -121.927338 -84.106292 -21.229759 -36.936108 79.910746 72.315721 33.622035 137.921534 82.282067 134.698426 -61.859534 24.414514 44.116067 74.226597 -74.541833 -17.265927 -90.777107 78.939543 -70.860530 -97.832644 -37.298338 59.000740 63.061279 -32.841408 34.504687 94.797847 64.733149 31.788150 -88.942266 35.172599 -69.772932 -91.950236 -74.741776 -16.707592 87.504405 23.181280 54.468081 -85.222473 20.694618 26.733359 93.697660 -8.077952 -59.274136 64.419140 9.948336 -36.490023 -47.844226 -3.908361 -70.509068 -73.941846 42.418410 9.122123 0.000000 0.000000 0.000000 -99.771393 7.754294 -70.668170 -82.760133 6.051420 -46.536982 52.832322 0.517733 -64.730810 81.530534 -31.460254 13.204235 0.000000 0.000000 0.000000 
-2.425107 -0.780173 1.680372 127.673288 61.868933 58.577131 -83.229915 0.178222 -29.500952 69.186484 71.949217 18.354889 97.190687 26.320523 83.877993 -63.330090 29.158054 39.134860 65.319728 -77.825898 -10.399550 78.431814 84.009150 91.703751 -96.667492 -39.579846 67.564220 69.005250 -37.605243 32.439324 93.155411 68.766060 23.910161 -88.940643 40.831911 -67.273483 -86.400354 -74.621925 -5.289449 86.381784 19.106283 53.659915 -86.712757 22.148276 29.554234 95.045863 -9.714609 -61.169278 64.761576 8.962288 -37.888568 -47.494384 -4.546245 -68.432759 -70.245891 47.814352 8.996083 0.000000 0.000000 0.000000 -99.475104 9.265970 -71.208896 -81.749925 6.919750 -45.067929 53.446176 0.205431 -63.113193 78.522687 -33.608309 14.236930 0.000000 0.000000 0.000000 
-0.779805 -0.688008 2.591082 158.317529 40.187666 -142.314528 -80.685138 16.303971 -24.934010 55.683527 73.341130 6.097487 95.783184 2.985313 77.788766 -61.761036 22.306873 44.391828 32.609714 -80.732467 10.219741 85.832861 53.538158 85.105584 -96.117940 -62.096996 75.454146 64.163103 -26.596200 34.061964 89.909477 74.402590 30.255833 -89.383969 37.897532 -68.945169 -84.416421 -75.554062 -0.434078 86.243846 25.566561 52.320307 -82.403307 30.675979 29.824873 94.488031 -11.648056 -61.773109 65.669806 7.835578 -37.658811 -46.377025 -2.178483 -68.879155 -61.456782 51.265192 16.754952 0.000000 0.000000 0.000000 -97.992181 8.486310 -69.269150 -80.964991 10.037825 -44.774967 52.714925 -1.600457 -65.215670 80.175213 -32.333078 20.255645 0.000000 0.000000 0.000000 
-1.598867 -0.604806 3.306148 43.352602 -12.747655 -69.384836 -78.851635 36.286692 -24.258373 49.769121 71.982079 -4.363366 95.550189 -2.421541 77.633071 -59.106447 17.639566 47.599935 -1.896990 -82.330525 31.490817 83.302485 19.071041 78.923933 136.022075 -86.458446 -142.114738 70.430898 -33.309431 30.628261 86.425614 76.192073 16.627474 -88.629565 36.535243 -69.984888 -83.038797 -75.530841 2.710302 85.144827 25.314664 47.564447 -85.058411 30.236590 34.163560 95.295134 -11.418579 -62.533167 66.453641 7.577532 -39.087529 -47.870858 -2.162900 -69.529027 -57.694373 52.329933 19.526575 0.000000 0.000000 0.000000 -97.236292 7.251211 -67.634481 -78.470825 8.904466 -42.670698 53.026904 -2.832037 -65.522447 80.814760 -33.078307 19.187278 0.000000 0.000000 0.000000 
-1.043437 -0.550125 4.785886 -104.008087 17.880119 -108.511052 -74.318527 44.387056 0.807420 64.943148 63.001488 -22.009545 96.201943 -28.136039 70.079338 -62.437412 17.381934 48.099155 -14.035393 -77.916152 44.824608 86.729463 -19.018949 78.840133 -95.144485 -59.669115 80.808119 77.144275 -33.680321 31.938566 82.516421 74.994237 0.772499 -89.849192 45.491600 -75.184896 -80.842053 -76.926887 9.676023 87.317948 34.714721 47.848336 -81.987081 31.966490 23.634148 95.976032 -11.786876 -63.344313 65.536313 7.888766 -35.631674 -46.791404 -0.741565 -65.166660 -66.030239 48.679416 8.007526 0.000000 0.000000 0.000000 -98.531990 6.742620 -70.008249 -75.637278 6.534177 -37.612836 52.141678 -5.361106 -62.601900 80.484408 -36.592876 18.728037 0.000000 0.000000 0.000000 
-0.660615 -0.529859 5.230637 99.520854 -48.325011 -85.694767 -68.281363 57.471432 -0.464732 75.443025 62.626042 -22.536254 95.734088 -32.277782 60.937788 -64.802828 24.945833 42.628412 4.508932 -74.833794 38.076411 87.389286 -36.442790 76.859427 -94.909310 -29.360749 63.439828 79.398313 -34.624777 30.765857 84.856681 71.148396 -14.467291 -89.878306 44.211094 -78.394160 -79.209893 -78.428392 6.480476 87.208614 41.710795 39.353219 -83.021821 28.467315 22.725070 96.522777 -13.439405 -66.161402 64.057048 8.565891 -33.563249 -45.425785 -0.315962 -61.148660 -71.184233 47.443186 4.657028 0.000000 0.000000 0.000000 -99.104071 7.520036 -70.666686 -74.436648 4.956035 -35.660837 51.737270 -4.933007 -60.718798 80.208045 -37.604824 19.291419 0.000000 0.000000 0.000000 
-1.179490 -0.543520 6.854855 -54.080320 3.561953 -78.549237 -56.636440 69.238532 -1.535795 76.959692 56.451986 -31.881964 94.077339 -16.264165 66.981600 -70.141287 27.828242 43.125650 0.525945 -73.038217 32.565246 85.784703 -36.608031 74.692246 -95.599611 -42.234748 55.179991 79.893601 -36.163468 28.906935 86.461231 71.416350 -16.752755 -90.312243 34.329326 -77.966430 -89.356786 -73.762668 10.294043 87.432630 48.033155 44.960489 -85.155345 25.468111 12.466631 95.846207 -10.627625 -66.684818 62.445720 9.093152 -34.154016 -42.134565 0.148903 -56.903167 -71.164401 46.634384 6.637718 0.000000 0.000000 0.000000 -98.191357 9.050991 -70.367517 -70.489565 2.162728 -31.492114 50.175877 -5.213811 -58.757637 81.970533 -35.247110 19.469521 0.000000 0.000000 0.000000 
-0.028169 -0.551334 7.800085 163.652103 -48.282846 -111.793466 -51.531490 74.114957 0.345922 86.761428 49.648659 -36.375301 94.143073 4.105885 74.703376 -68.954944 28.182443 47.022217 11.823541 -69.640780 21.390656 84.853979 -13.949153 73.370248 -98.046830 -47.051464 58.020149 80.451427 -38.620229 29.452801 86.659387 70.538175 -25.773427 -90.492717 34.263870 -79.254840 -89.473431 -72.379074 14.439198 84.716127 51.450709 42.456539 -83.958817 23.512957 10.087240 95.484885 -10.401514 -67.233303 60.641963 8.783964 -32.415016 -39.706922 -0.200975 -54.938381 -70.061247 47.540851 7.846009 0.000000 0.000000 0.000000 -96.729451 8.282312 -68.512632 -67.551074 1.689578 -28.591944 49.224443 -4.787032 -58.599524 81.571124 -35.000118 21.188939 0.000000 0.000000 0.000000 
-0.694764 -0.547895 9.087000 -30.881376 -13.623464 -53.010330 -41.933241 78.520238 -4.484948 90.030870 39.877339 -41.036992 94.489044 12.940057 74.912592 -68.591250 27.576817 44.074306 29.497583 -65.279369 7.163154 79.888033 26.428584 59.483311 -98.881681 -42.366310 62.689394 82.453534 -35.867586 24.746716 85.899081 69.591606 -34.601180 -90.723159 35.397382 -79.975261 -87.066396 -71.277048 15.859053 76.271083 59.961016 38.790436 -84.473595 22.096750 3.170198 94.311141 -9.401850 -67.220402 62.686838 7.379736 -33.102051 -39.212830 -3.419369 -56.939869 -59.485004 50.184435 16.811026 0.000000 0.000000 0.000000 -96.279956 6.780681 -67.483476 -67.764615 2.556321 -28.659692 47.658241 -5.343898 -55.632514 81.039346 -34.146961 23.376071 0.000000 0.000000 0.000000 
0.207695 -0.539915 10.318864 -163.748525 -40.254808 -109.071559 -31.346721 80.796303 -0.071852 91.743566 30.166214 -45.422257 94.851937 30.355432 78.709334 -72.198660 31.234235 38.799132 49.682584 -53.537579 -1.152525 39.549384 59.487443 22.852859 -98.759606 -31.846403 63.914893 82.979885 -34.664784 26.580682 85.465604 64.448371 -44.501407 -90.471708 33.571340 -78.596240 -86.924349 -67.685239 19.837712 71.649704 63.129868 36.662956 -83.966466 23.042658 2.180506 94.588359 -7.415399 -66.935725 64.314425 5.984593 -33.576654 -38.649709 -5.195491 -58.969335 -57.026652 49.454442 18.889449 0.000000 0.000000 0.000000 -95.218113 3.129786 -64.743632 -67.756266 3.004780 -28.435782 48.120111 -4.952065 -56.160825 81.597332 -31.696313 23.611210 0.000000 0.000000 0.000000 
